<svg xmlns="http://www.w3.org/2000/svg" width="48" height="48" viewBox="0 0 48 48"><g fill="none" fill-rule="evenodd"><path d="M0 48h48V0H0z"/><g fill="#AF2C3C"><path d="M32.065 21.722a.377.377 0 0 0-.376-.377h-4.396a.376.376 0 0 0 0 .754h4.396c.207 0 .376-.17.376-.377m-4.11 2.921c0 .524.674.934 1.535.934.847 0 1.536-.42 1.536-.934 0-.516-.689-.935-1.536-.935-.846 0-1.535.42-1.535.935m-6.893-2.921a.377.377 0 0 0-.376-.377H16.29a.376.376 0 0 0 0 .754h4.396c.208 0 .376-.17.376-.377m-4.109 2.921c0 .524.674.934 1.534.934.847 0 1.536-.42 1.536-.934 0-.516-.689-.935-1.536-.935-.846 0-1.534.42-1.534.935m10.753 9.122h-7.411a.377.377 0 0 0 0 .754h7.41a.377.377 0 0 0 0-.754m.001 2.212h-7.411a.377.377 0 0 0 0 .753h7.41a.377.377 0 0 0 0-.753m.001 2.213h-7.411a.377.377 0 0 0 0 .752h7.41a.377.377 0 0 0 0-.753"/><path d="M11.586 32.41a2.976 2.976 0 0 1-.467-.072l-.024-.008c-.435-.118-1.237-.535-1.727-1.986-.245-.726-.443-1.338-.633-1.928l-.348-1.071c-.332-1.012-.324-1.822.018-2.064.171-.122.48-.074.715.115.1.079.136.145.147.185.477 1.834 1.227 4.102 2.007 6.067l.312.763zm23.771.777c-1.663 3.677-3.66 6.525-6.278 8.957-1.625 1.511-3.206 1.82-5.08 1.82-1.872 0-3.453-.309-5.078-1.82-2.619-2.433-4.615-5.281-6.278-8.957.574-.017 1.302-.132 2.336-.728a63.87 63.87 0 0 0 2.612-1.607l.024-.015c2.364-1.51 4.232-2.703 6.385-2.704 2.153.001 4.02 1.194 6.386 2.704a65.4 65.4 0 0 0 2.635 1.622c1.034.596 1.762.71 2.336.728zm4.257-5.842l-.349 1.071c-.19.591-.388 1.202-.633 1.929-.49 1.451-1.292 1.867-1.727 1.985l-.022.008c-.122.032-.28.056-.469.073l.312-.763c.78-1.964 1.53-4.232 2.006-6.065a.42.42 0 0 1 .148-.187.797.797 0 0 1 .48-.182c.09 0 .172.022.235.067.343.242.35 1.052.019 2.064zm.525-2.832a1.36 1.36 0 0 0-.924-.238c.377-1.81.637-3.614.777-5.363.382-4.79-.863-8.887-3.6-11.849-2.92-3.158-7.437-4.97-12.392-4.97-1.258 0-2.374.124-3.007.242a8.836 8.836 0 0 1-.759-.439l-.051-.034a.19.19 0 0 0-.26.052l-.334.491a.19.19 0 0 0 .053.265l.053.035c.856.561 1.79.983 2.561 1.157.875.197 1.311.622 1.493.858l.033.041a.19.19 0 0 0 .235.051l.531-.277a.191.191 0 0 0 .066-.278l-.042-.058c-.172-.24-.653-.795-1.595-1.134.343-.018.785-.032 1.022-.032 4.698 0 8.964 1.701 11.702 4.668 2.59 2.806 3.719 6.554 3.353 11.137a42.16 42.16 0 0 1-.943 6.085c-.471 2.041-1.554 5.263-2.525 7.513-.669.01-1.27-.099-2.19-.63a63.936 63.936 0 0 1-2.605-1.605c-2.37-1.512-4.415-2.818-6.795-2.822-2.37.003-4.416 1.309-6.787 2.822a63.116 63.116 0 0 1-2.606 1.605c-.92.53-1.529.64-2.188.63-.882-2.04-1.846-4.847-2.414-7.023.337-.1.667-.4.91-.83.41-.727.703-1.79 1.043-3.02.684-2.48 1.537-5.567 3.756-6.966 2.486-1.567 4.627-1.29 7.106-.97 2.38.306 5.074.652 8.572-.573l.08.051c.257 1.897 1.445 4.389 4.016 5.73a.376.376 0 1 0 .347-.668c-2.394-1.25-3.448-3.569-3.636-5.323a.38.38 0 0 0-.172-.279l-.387-.245a.37.37 0 0 0-.33-.037c-3.418 1.24-6.063.898-8.406.595-2.512-.322-4.882-.625-7.592 1.083-2.466 1.554-3.361 4.795-4.08 7.401-.327 1.182-.608 2.203-.973 2.85-.153.27-.314.404-.42.46a42.82 42.82 0 0 1-.89-5.834c-.743-9.32 4.854-13.079 8.258-14.49l.045-.019c.42.185.813.319 1.167.398.876.198 1.312.622 1.494.858l.032.04a.19.19 0 0 0 .236.053l.53-.278a.19.19 0 0 0 .067-.277l-.043-.06c-.208-.29-.831-.998-2.102-1.285-.658-.148-1.472-.519-2.235-1.016l-.05-.034a.19.19 0 0 0-.261.051l-.334.492a.189.189 0 0 0 .053.266l.053.033c.112.073.226.141.338.207-5.757 2.681-8.74 8.19-8.185 15.135.139 1.74.4 3.543.777 5.364a1.36 1.36 0 0 0-.923.237c-.423.298-1.033 1.102-.37 3.123l.334 1.027c.198.617.398 1.234.65 1.982.668 1.978 2.005 2.684 3.034 2.684.05 0 .101-.005.151-.01h.007c1.735 3.911 3.837 6.936 6.612 9.515 1.96 1.82 3.907 2.071 5.72 2.071 1.812 0 3.76-.25 5.72-2.072 2.776-2.58 4.878-5.604 6.613-9.515h.005c.05.006.101.01.153.01 1.028 0 2.365-.705 3.032-2.683.257-.759.463-1.395.652-1.982l.332-1.025c.664-2.023.054-2.826-.368-3.125z"/></g></g></svg>