<svg height="48" viewBox="0 0 48 48" width="48" xmlns="http://www.w3.org/2000/svg"><g fill="none" fill-rule="evenodd"><path d="M0 48h48V0H0z"/><g fill="#683e51"><path d="M27.746 24.537c0-1.464.882-2.655 1.964-2.655 1.083 0 1.965 1.191 1.965 2.655 0 1.463-.882 2.655-1.965 2.655-1.082 0-1.964-1.192-1.964-2.655m1.964 3.408c1.499 0 2.717-1.529 2.717-3.408s-1.218-3.408-2.717-3.408c-1.498 0-2.716 1.53-2.716 3.408 0 1.879 1.218 3.408 2.716 3.408m-13.386-3.408c0-1.464.882-2.655 1.964-2.655 1.083 0 1.965 1.191 1.965 2.655 0 1.463-.882 2.655-1.965 2.655-1.082 0-1.964-1.192-1.964-2.655m1.964 3.408c1.499 0 2.717-1.529 2.717-3.408s-1.218-3.408-2.717-3.408c-1.498 0-2.716 1.53-2.716 3.408 0 1.879 1.218 3.408 2.716 3.408m1.865 11.492c.997-.617 2.385-.967 3.847-.967s2.85.35 3.848.967zm-1.383 1.746c.06-.345.225-.68.49-.994h9.48c.265.315.429.649.49.994zm8.833 2.5c-.982.533-2.251.825-3.603.825-1.353 0-2.62-.292-3.602-.825zm1.597-1.747c-.091.35-.287.684-.582.993h-9.236c-.295-.31-.49-.643-.582-.993zM24 45.262c3.317 0 6.015-1.693 6.015-3.773S27.317 37.717 24 37.717s-6.016 1.692-6.016 3.772 2.7 3.773 6.016 3.773z"/><path d="M17.74 38.036c.26-2.17 3.02-3.88 6.286-3.888 3.265.009 6.027 1.722 6.287 3.901.428 3.054.461 3.494.461 3.556 0 2.399-3.027 4.357-6.748 4.367-3.72-.01-6.748-1.968-6.748-4.367 0-.062.033-.502.462-3.569m6.285-21.54c5.077.007 9.18 2.16 10.21 5.357 1.212 3.769-1.398 9.52-4.534 13.573-1.334-1.265-3.439-2.024-5.65-2.036H24c-2.21.012-4.315.771-5.648 2.036-3.136-4.053-5.746-9.804-4.534-13.573 1.03-3.197 5.132-5.35 10.208-5.357m16.114 8.017a1.366 1.366 0 0 0-.924-.238c.377-1.81.638-3.614.777-5.363.382-4.79-.863-8.887-3.6-11.849-2.92-3.158-7.437-4.97-12.392-4.97-1.258 0-2.374.124-3.008.242a8.916 8.916 0 0 1-.758-.439l-.051-.033a.19.19 0 0 0-.26.052l-.334.49a.188.188 0 0 0 .053.265l.053.035c.857.562 1.791.984 2.56 1.157.876.197 1.312.622 1.494.857l.032.042a.19.19 0 0 0 .236.051l.531-.277a.19.19 0 0 0 .066-.278l-.042-.059c-.172-.24-.653-.794-1.595-1.133.342-.018.783-.032 1.022-.032 4.699 0 8.964 1.7 11.702 4.668 2.59 2.806 3.718 6.553 3.353 11.137a43.393 43.393 0 0 1-.944 6.088l-.051.27a.253.253 0 0 0 .247.298h.362a.254.254 0 0 0 .154-.052l.057-.046c.243-.187.546-.236.717-.115.342.243.349 1.052.018 2.064l-.335 1.03c-.22.678-.405 1.254-.647 1.97-.389 1.151-1.092 1.899-1.898 2.024l.063-.145c.047-.11.095-.22.141-.336a.253.253 0 0 0-.142-.327l-.408-.16a.255.255 0 0 0-.324.14c-1.29 3.237-2.844 5.928-4.75 8.22-.068-.504-.15-1.106-.25-1.815-.081-.68-.366-1.337-.846-1.95 3.307-4.232 6.047-10.306 4.737-14.376-1.129-3.51-5.522-5.874-10.93-5.882-5.407.008-9.799 2.372-10.929 5.882-1.31 4.07 1.43 10.144 4.737 14.376-.48.614-.764 1.27-.844 1.948-.104.733-.188 1.354-.258 1.87-1.929-2.309-3.498-5.016-4.795-8.272a.254.254 0 0 0-.326-.14l-.408.16a.252.252 0 0 0-.14.327c.045.115.093.226.14.338a2.1 2.1 0 0 1 .06.137.45.45 0 0 1-.039-.006c-.796-.146-1.472-.88-1.855-2.014-.244-.719-.439-1.325-.628-1.911l-.354-1.09c-.332-1.01-.324-1.82.019-2.063.175-.123.47-.072.735.13l.066.042a.255.255 0 0 0 .15.038l.358-.023a.229.229 0 0 0 .113-.04.24.24 0 0 0 .134-.003c.35-.087.697-.394.95-.841.41-.728.703-1.79 1.043-3.02.684-2.48 1.536-5.567 3.756-6.965 2.486-1.568 4.627-1.292 7.106-.971 2.38.306 5.074.651 8.572-.573l.08.05c.257 1.898 1.444 4.39 4.016 5.73a.38.38 0 0 0 .507-.16.372.372 0 0 0 .025-.288.37.37 0 0 0-.185-.22c-2.394-1.248-3.448-3.568-3.636-5.323a.381.381 0 0 0-.172-.278l-.387-.245a.372.372 0 0 0-.33-.036c-3.418 1.238-6.062.897-8.406.594-2.513-.321-4.883-.624-7.592 1.083-2.466 1.553-3.361 4.797-4.081 7.402-.326 1.18-.607 2.201-.973 2.85-.152.27-.312.403-.42.458a42.788 42.788 0 0 1-.888-5.833C8.203 9.517 13.8 5.759 17.203 4.348l.046-.019c.42.185.813.318 1.168.398.875.198 1.311.622 1.493.858l.032.04a.19.19 0 0 0 .236.053l.532-.278a.192.192 0 0 0 .095-.124.187.187 0 0 0-.03-.154l-.042-.058c-.209-.292-.832-1-2.103-1.286-.657-.148-1.472-.518-2.235-1.016l-.05-.034a.19.19 0 0 0-.26.052l-.335.491a.187.187 0 0 0 .053.265l.053.034c.111.073.226.14.339.206-5.758 2.682-8.74 8.192-8.186 15.137a43.8 43.8 0 0 0 .777 5.363 1.355 1.355 0 0 0-.924.236c-.422.3-1.032 1.103-.369 3.125l.334 1.026c.209.648.402 1.245.65 1.982.669 1.979 2.006 2.684 3.034 2.684.05 0 .1-.005.15-.01l.008-.001c1.338 3.019 2.942 5.555 4.903 7.75-.034.298-.05.469-.05.537 0 2.807 3.355 5.105 7.479 5.125h.052c4.124-.02 7.48-2.318 7.48-5.125 0-.071-.018-.26-.057-.589 1.94-2.185 3.529-4.704 4.857-7.698h.006c.05.006.1.01.152.01 1.028 0 2.366-.704 3.034-2.684.252-.747.452-1.363.65-1.98l.333-1.026c.664-2.023.054-2.826-.368-3.125"/></g></g></svg>