<svg xmlns="http://www.w3.org/2000/svg" width="48" height="48" viewBox="0 0 48 48"><g fill="none" fill-rule="evenodd"><path d="M0 48h48V0H0z"/><g fill="#634675"><path d="M26.22 36.782a2.152 2.152 0 0 1-2.148 2.152 2.152 2.152 0 0 1 0-4.302 2.15 2.15 0 0 1 2.147 2.15m-2.147-2.9a2.9 2.9 0 0 0 0 5.802 2.901 2.901 0 0 0 0-5.802"/><path d="M27.889 36.914A3.696 3.696 0 0 1 24.2 40.61a3.696 3.696 0 0 1 0-7.389 3.695 3.695 0 0 1 3.688 3.694M24.2 32.471a4.445 4.445 0 0 0 0 8.888 4.445 4.445 0 0 0 0-8.888"/><path d="M38.206 36.981a.102.102 0 0 1-.007.08l-4.565 8.86a.104.104 0 0 1-.139.044l-1.017-.526 4.66-9.044 1.017.526a.102.102 0 0 1 .05.06zm-27.431-.06l1.017-.526 4.66 9.045-1.017.525a.107.107 0 0 1-.139-.044l-4.565-8.86a.105.105 0 0 1-.007-.08.105.105 0 0 1 .05-.06zm8.907 6.342c-.125.391-.393.71-.757.898l-1.808.935-4.66-9.044 1.808-.935a1.529 1.529 0 0 1 2.066.66l3.253 6.314c.188.364.223.78.098 1.172zm8.764-.213c-1.378.875-2.732.996-3.99.996-1.253 0-2.601-.12-3.975-.986a2.275 2.275 0 0 0-.232-1.313l-3.254-6.313c-.022-.044-.05-.083-.077-.123l-.018-.026c2.134-3.991 5.75-6.972 7.566-6.976 1.816.004 5.43 2.984 7.565 6.975l-.02.03a.976.976 0 0 0-.076.12l-3.254 6.313c-.205.4-.286.85-.235 1.303zm3.367 2.046l-1.808-.935a1.54 1.54 0 0 1-.659-2.07l3.253-6.314a1.525 1.525 0 0 1 1.364-.832c.246 0 .482.058.702.172l1.808.935-4.398 8.537-.262.507zm8.677-20.407a1.347 1.347 0 0 0-.918-.237c.374-1.802.633-3.597.771-5.337.38-4.767-.856-8.844-3.576-11.791-2.9-3.144-7.388-4.947-12.31-4.947-1.25 0-2.359.124-2.989.24-.29-.151-.53-.29-.753-.435l-.051-.034a.19.19 0 0 0-.258.051l-.332.49a.184.184 0 0 0-.03.141c.01.05.04.095.083.122l.053.034c.85.559 1.777.979 2.543 1.152.87.196 1.303.618 1.484.853l.032.041a.188.188 0 0 0 .234.052l.528-.277a.19.19 0 0 0 .066-.277l-.043-.058c-.17-.239-.648-.79-1.584-1.127.34-.018.778-.033 1.016-.033 4.667 0 8.904 1.694 11.624 4.646 2.574 2.793 3.695 6.522 3.332 11.083a43.229 43.229 0 0 1-.938 6.058l-.05.269a.248.248 0 0 0 .053.206.245.245 0 0 0 .192.091h.36a.255.255 0 0 0 .152-.053l.057-.044c.243-.187.542-.235.711-.115.34.241.348 1.048.02 2.054l-.347 1.066c-.19.588-.386 1.196-.63 1.92-.385 1.146-1.085 1.89-1.884 2.014.02-.05.041-.098.062-.146.047-.109.094-.218.14-.333a.253.253 0 0 0-.141-.325l-.407-.16a.253.253 0 0 0-.321.141c-.382.96-.795 1.884-1.258 2.816l-.023.03-.151-.079a2.256 2.256 0 0 0-1.74-.146c-.26.083-.5.21-.715.378a20.2 20.2 0 0 0-3.814-4.82c-1.611-1.482-3.127-2.3-4.277-2.303-1.143.003-2.66.822-4.27 2.304a20.203 20.203 0 0 0-3.815 4.82 2.263 2.263 0 0 0-.717-.379 2.255 2.255 0 0 0-1.739.146l-.151.078-.063-.078a36.789 36.789 0 0 1-1.238-2.767.25.25 0 0 0-.322-.14l-.406.16a.252.252 0 0 0-.14.326c.044.111.09.218.136.325l.064.147a.46.46 0 0 1-.04-.006c-.79-.145-1.462-.875-1.842-2.004-.24-.71-.433-1.309-.62-1.888l-.356-1.098c-.329-1.006-.321-1.812.02-2.053.173-.123.464-.072.729.128l.066.042a.244.244 0 0 0 .15.038l.354-.023a.235.235 0 0 0 .113-.04.25.25 0 0 0 .132-.002c.35-.088.693-.393.944-.838.408-.724.7-1.78 1.037-3.005.68-2.468 1.526-5.54 3.731-6.932 2.47-1.56 4.597-1.284 7.06-.966 2.365.304 5.04.649 8.516-.57l.08.051c.255 1.888 1.434 4.368 3.99 5.701a.375.375 0 0 0 .344-.664c-2.379-1.242-3.426-3.551-3.613-5.298a.377.377 0 0 0-.17-.276l-.384-.244a.369.369 0 0 0-.328-.037c-3.396 1.234-6.023.894-8.351.592-2.496-.32-4.851-.622-7.543 1.078-2.45 1.545-3.339 4.772-4.054 7.365-.324 1.176-.604 2.192-.967 2.836-.155.276-.318.409-.417.459A42.807 42.807 0 0 1 9.5 19.04c-.739-9.275 4.822-13.015 8.203-14.42l.045-.019c.418.184.808.317 1.16.397.87.196 1.303.619 1.484.853l.032.041a.19.19 0 0 0 .234.052l.527-.276a.19.19 0 0 0 .066-.277l-.042-.059c-.207-.289-.826-.994-2.089-1.28-.653-.147-1.462-.515-2.22-1.01l-.05-.034a.187.187 0 0 0-.259.051l-.332.49a.19.19 0 0 0 .052.263l.053.034c.111.073.225.14.337.205-5.72 2.669-8.683 8.152-8.132 15.063.137 1.73.397 3.526.772 5.337a1.358 1.358 0 0 0-.918.237c-.42.297-1.026 1.097-.366 3.108l.33 1.022c.198.614.396 1.228.647 1.972.663 1.97 1.992 2.671 3.014 2.671.05 0 .098-.005.146-.01h.01c.189.426.397.869.634 1.348l-2.492 1.288a1.044 1.044 0 0 0-.447 1.402l4.566 8.861a1.038 1.038 0 0 0 1.4.448l3.488-1.805c.411-.212.75-.532.986-.928 1.453.805 2.837.916 4.117.916 1.222 0 2.667-.11 4.129-.924.235.4.577.722.991.936l3.49 1.805a1.036 1.036 0 0 0 1.4-.448l4.565-8.86a1.043 1.043 0 0 0-.446-1.403l-2.508-1.295c.233-.472.44-.912.63-1.342l.012.001c.048.005.096.01.146.01 1.021 0 2.35-.702 3.013-2.671.254-.755.459-1.389.647-1.972l.33-1.02c.66-2.014.054-2.813-.365-3.11z"/><path d="M31.938 21.552a.375.375 0 0 0-.374-.376h-4.367a.374.374 0 0 0 0 .75h4.367a.374.374 0 0 0 .374-.374m-3.703 2.673c0 .521.67.929 1.525.929.841 0 1.526-.417 1.526-.929 0-.513-.685-.93-1.526-.93-.84 0-1.525.417-1.525.93m-6.885-2.673a.375.375 0 0 0-.374-.376h-4.367a.374.374 0 0 0 0 .75h4.367a.374.374 0 0 0 .374-.374m-4.409 2.673c0 .521.67.929 1.525.929.841 0 1.526-.417 1.526-.929 0-.513-.685-.93-1.526-.93-.84 0-1.525.417-1.525.93"/></g></g></svg>