<svg height="48" viewBox="0 0 48 48" width="48" xmlns="http://www.w3.org/2000/svg"><g fill="none" fill-rule="evenodd"><path d="M0 48h48V0H0z"/><g fill="#a57f23"><path d="M24.027 31.035c.46 0 .934-.072 1.446-.22a.377.377 0 0 0-.207-.725c-.892.259-1.587.258-2.479 0a.374.374 0 0 0-.466.257c-.057.2.059.41.258.467.513.149.987.22 1.448.22"/><path d="M40.139 24.513a1.358 1.358 0 0 0-.924-.238c.377-1.81.637-3.614.777-5.363.382-4.79-.863-8.887-3.6-11.849-2.92-3.158-7.437-4.97-12.392-4.97-1.258 0-2.374.124-3.007.242a8.836 8.836 0 0 1-.759-.438l-.051-.035a.191.191 0 0 0-.26.052l-.334.492a.189.189 0 0 0 .053.265l.053.034c.856.561 1.79.983 2.561 1.157.875.197 1.311.622 1.493.858l.033.041a.19.19 0 0 0 .235.052l.531-.278a.191.191 0 0 0 .066-.278l-.042-.059c-.172-.24-.653-.795-1.595-1.132.342-.019.783-.033 1.022-.033 4.698 0 8.964 1.701 11.702 4.668 2.59 2.807 3.719 6.554 3.353 11.137a43.37 43.37 0 0 1-.944 6.087l-.051.27a.254.254 0 0 0 .247.3h.362a.255.255 0 0 0 .154-.054l.057-.045c.245-.187.546-.236.716-.115.343.242.35 1.053.019 2.064l-.335 1.03-.01.027c-.192.595-.39 1.21-.637 1.943-.389 1.152-1.092 1.899-1.898 2.024l.063-.145c.047-.11.095-.22.142-.336a.255.255 0 0 0-.143-.327l-.408-.16a.255.255 0 0 0-.324.141c-1.775 4.454-3.995 7.823-6.986 10.603-1.625 1.51-3.206 1.82-5.079 1.82s-3.453-.31-5.079-1.821c-2.992-2.78-5.211-6.15-6.985-10.602a.252.252 0 0 0-.325-.14l-.408.16a.252.252 0 0 0-.141.327c.045.114.092.222.14.332l.061.143a.45.45 0 0 1-.039-.006c-.796-.146-1.472-.88-1.855-2.014a142.07 142.07 0 0 1-.628-1.911l-.353-1.09c-.333-1.01-.325-1.82.018-2.062.175-.123.47-.072.734.129l.067.042a.25.25 0 0 0 .15.038l.357-.024a.224.224 0 0 0 .114-.039.261.261 0 0 0 .133-.002c.352-.089.698-.396.95-.843.41-.727.704-1.79 1.044-3.019.684-2.48 1.537-5.566 3.756-6.965 2.486-1.568 4.627-1.291 7.106-.971 2.38.306 5.074.652 8.572-.574l.08.052c.257 1.897 1.445 4.389 4.016 5.73a.376.376 0 1 0 .347-.668c-2.394-1.249-3.448-3.569-3.636-5.324a.38.38 0 0 0-.172-.278l-.387-.245a.37.37 0 0 0-.33-.037c-3.418 1.24-6.063.898-8.406.595-2.512-.322-4.882-.625-7.592 1.083-2.466 1.554-3.361 4.796-4.08 7.401-.327 1.182-.608 2.203-.973 2.85-.153.27-.314.404-.42.46a42.807 42.807 0 0 1-.89-5.834c-.743-9.32 4.854-13.079 8.258-14.49a.635.635 0 0 1 .045-.019c.42.184.813.318 1.167.398.876.197 1.312.622 1.494.858l.032.041a.19.19 0 0 0 .236.052l.53-.277a.191.191 0 0 0 .097-.124.184.184 0 0 0-.03-.154l-.043-.06c-.208-.29-.831-.998-2.102-1.286-.658-.147-1.472-.518-2.235-1.015l-.05-.034a.19.19 0 0 0-.261.051l-.334.492a.189.189 0 0 0 .053.266l.053.033c.112.073.226.141.338.207-5.757 2.681-8.74 8.19-8.185 15.136a43.8 43.8 0 0 0 .777 5.363 1.362 1.362 0 0 0-.923.237c-.423.298-1.033 1.102-.37 3.124l.334 1.026c.209.648.402 1.245.65 1.982.668 1.978 2.005 2.684 3.034 2.684.05 0 .1-.005.15-.01l.008-.001c1.733 3.91 3.835 6.935 6.612 9.515 1.959 1.821 3.907 2.072 5.72 2.072 1.812 0 3.76-.25 5.72-2.071 2.776-2.582 4.879-5.606 6.612-9.516h.007c.05.006.101.01.152.01 1.028 0 2.365-.705 3.032-2.683.253-.748.453-1.364.652-1.982l.332-1.025c.664-2.023.054-2.826-.368-3.125"/><path d="M25.41 38.404v-.112a.365.365 0 0 0 0-.53v-.112h-2.814v.107a.367.367 0 0 0-.121.27c0 .101.043.199.12.27v.107h2.816zm2.611-2.498a.377.377 0 0 0-.376-.377h-7.29a.377.377 0 0 0 0 .755h7.29c.208 0 .376-.17.376-.378m4.044-14.184a.377.377 0 0 0-.376-.377h-4.396a.377.377 0 0 0 0 .753h4.396a.377.377 0 0 0 .376-.376m-2.575 3.855c.848 0 1.537-.42 1.537-.934 0-.515-.69-.935-1.537-.935-.846 0-1.535.42-1.535.935 0 .524.675.934 1.535.934m-8.428-3.855a.377.377 0 0 0-.376-.377H16.29a.377.377 0 0 0 0 .753h4.396a.377.377 0 0 0 .376-.376m-2.575 3.855c.848 0 1.537-.42 1.537-.934 0-.515-.69-.935-1.537-.935-.846 0-1.534.42-1.534.935 0 .524.674.934 1.534.934"/></g></g></svg>