<svg xmlns="http://www.w3.org/2000/svg" width="48" height="48" viewBox="0 0 48 48"><g fill="none" fill-rule="evenodd"><path d="M0 48h48V0H0z"/><g fill="#718B3A"><path d="M22.579 30.814c.512.148.986.22 1.447.22.46 0 .934-.072 1.447-.22a.378.378 0 0 0 .076-.693.373.373 0 0 0-.284-.03c-.89.257-1.586.257-2.477 0a.377.377 0 0 0-.21.724"/><path d="M40.139 24.513a1.36 1.36 0 0 0-.924-.238c.377-1.81.637-3.614.777-5.363.382-4.79-.863-8.887-3.6-11.849-2.92-3.158-7.437-4.97-12.392-4.97-1.258 0-2.374.124-3.007.242a8.88 8.88 0 0 1-.759-.438l-.051-.035a.19.19 0 0 0-.26.052l-.334.492a.187.187 0 0 0-.03.144c.01.05.04.094.082.12l.054.035c.856.561 1.79.983 2.561 1.157.875.197 1.311.622 1.493.858l.032.04a.19.19 0 0 0 .236.053l.532-.278a.188.188 0 0 0 .065-.277l-.042-.06c-.172-.24-.653-.795-1.595-1.132.342-.019.783-.033 1.023-.033 4.697 0 8.963 1.701 11.701 4.668 2.59 2.807 3.719 6.554 3.353 11.137a43.37 43.37 0 0 1-.944 6.087l-.051.27a.254.254 0 0 0 .247.3h.362a.255.255 0 0 0 .154-.054l.057-.045c.245-.187.546-.236.716-.115.343.242.35 1.053.019 2.064l-.335 1.03-.01.027c-.192.595-.39 1.21-.637 1.943-.389 1.152-1.092 1.899-1.898 2.024l.063-.145c.047-.11.095-.22.142-.336a.255.255 0 0 0-.143-.327l-.408-.16a.255.255 0 0 0-.324.141c-1.775 4.454-3.995 7.823-6.986 10.603-1.625 1.51-3.206 1.82-5.079 1.82-1.872 0-3.453-.31-5.079-1.821-2.992-2.78-5.211-6.149-6.985-10.602a.253.253 0 0 0-.326-.14l-.407.16a.252.252 0 0 0-.141.327c.046.116.094.227.142.338l.06.137c-.014-.002-.027-.003-.04-.006-.796-.146-1.472-.88-1.855-2.013-.243-.718-.438-1.322-.627-1.907l-.354-1.095c-.332-1.01-.325-1.82.018-2.062.175-.123.47-.073.734.129l.067.042c.046.028.1.04.15.038l.357-.024a.222.222 0 0 0 .114-.039c.031.014.087.01.133-.002.351-.088.698-.396.95-.843.41-.727.704-1.79 1.044-3.02.684-2.48 1.537-5.566 3.756-6.964 2.485-1.567 4.625-1.291 7.106-.971 2.38.306 5.074.652 8.572-.574l.08.052c.257 1.897 1.445 4.389 4.016 5.73a.376.376 0 1 0 .347-.668c-2.394-1.249-3.448-3.569-3.636-5.324a.38.38 0 0 0-.172-.278l-.387-.245a.37.37 0 0 0-.33-.037c-3.418 1.24-6.063.898-8.406.595-2.51-.321-4.882-.624-7.592 1.083-2.465 1.553-3.36 4.796-4.08 7.401-.327 1.182-.608 2.203-.973 2.85-.152.269-.312.403-.42.459a42.846 42.846 0 0 1-.89-5.833c-.743-9.32 4.854-13.079 8.257-14.49l.046-.019c.42.184.812.318 1.167.398.875.197 1.312.622 1.494.858l.032.041a.192.192 0 0 0 .236.052l.532-.278a.188.188 0 0 0 .065-.277l-.043-.06c-.209-.29-.832-.998-2.102-1.286-.658-.147-1.473-.518-2.235-1.015l-.05-.034a.188.188 0 0 0-.261.051l-.334.492a.187.187 0 0 0-.03.144c.01.05.04.094.083.122l.053.033c.111.073.226.141.338.207-5.757 2.681-8.739 8.19-8.185 15.136.138 1.736.4 3.54.778 5.363a1.354 1.354 0 0 0-.924.237c-.423.3-1.032 1.102-.37 3.124l.343 1.057c.193.597.393 1.216.641 1.95.668 1.98 2.005 2.685 3.034 2.685.05 0 .1-.005.15-.01l.008-.001c1.733 3.91 3.835 6.934 6.612 9.515 1.959 1.821 3.907 2.072 5.72 2.072 1.812 0 3.76-.25 5.72-2.071 2.776-2.582 4.879-5.606 6.612-9.516h.007c.05.006.101.01.152.01 1.028 0 2.365-.705 3.032-2.683.253-.748.453-1.364.652-1.982l.332-1.025c.664-2.023.054-2.826-.368-3.125"/><path d="M31.026 24.643c0-.515-.689-.935-1.536-.935-.846 0-1.534.42-1.534.935 0 .524.673.934 1.534.934.847 0 1.536-.42 1.536-.934m-12.539.934c.848 0 1.537-.42 1.537-.934 0-.515-.69-.935-1.537-.935-.846 0-1.535.42-1.535.935 0 .524.674.934 1.535.934m9.093 9.999c-.404 1.021-1.388 2.631-3.58 2.631-2.19 0-3.176-1.61-3.58-2.631h7.16zM24 38.96c2.524 0 3.963-1.89 4.467-3.658a.375.375 0 0 0-.362-.48h-8.21a.378.378 0 0 0-.363.48c.505 1.768 1.944 3.658 4.468 3.658zm7.942-16.711a.372.372 0 0 0-.002-.288.373.373 0 0 0-.206-.203 6.035 6.035 0 0 0-2.239-.437c-.959 0-1.752.241-2.249.443a.377.377 0 0 0 .142.725.37.37 0 0 0 .141-.028 5.305 5.305 0 0 1 1.966-.387c.837 0 1.526.208 1.958.383a.38.38 0 0 0 .49-.208m-11.494.211a.375.375 0 0 0 .488-.495.376.376 0 0 0-.205-.202 6.042 6.042 0 0 0-2.249-.442c-.955 0-1.745.238-2.24.438a.377.377 0 0 0 .284.698 5.277 5.277 0 0 1 1.956-.383c.837 0 1.53.21 1.966.386"/></g></g></svg>